<svg version="1.1" id="Layer_1" xmlns="http://www.w3.org/2000/svg" xmlns:xlink="http://www.w3.org/1999/xlink" x="0px" y="0px"
					viewBox="0 0 512 518" enable-background="new 0 0 512 518" xml:space="preserve">
				<g>
					<path fill-rule="evenodd" clip-rule="evenodd" fill="#F3ED6F" d="M51.8,507.641c0-120.544,0-241.087,0-361.631
						c0.261-0.055,0.521-0.11,0.782-0.165c1.732,0.041,3.464,0.115,5.196,0.115c43.466,0.007,86.934,0.179,130.398-0.161
						c7.449-0.059,13.184,0.977,16.336,8.375c0.557,1.309,1.738,2.344,2.59,3.535c12.62,17.666,25.236,35.334,37.846,53.006
						c6.253,8.763,12.598,17.461,18.681,26.34c2.059,3.004,4.218,4.405,8.07,4.393c61.465-0.185,122.929-0.199,184.394-0.25
						c5.338-0.004,5.342,0.003,5.342,5.397c0,85.198,0,170.398,0,255.598c0,5.489-0.003,5.491-5.657,5.491
						c-132.399,0-264.798-0.001-397.198,0.005c-1.999,0.001-3.997,0.075-5.995,0.116C52.324,507.751,52.062,507.695,51.8,507.641z
						 M256.371,398.661c-23.717,0-47.433-0.003-71.15,0.006c-1.598,0-3.214-0.057-4.788,0.158c-3.307,0.45-5.214,2.409-5.474,5.771
						c-0.389,5.046,2.518,7.673,8.794,7.677c48.633,0.032,97.266,0.021,145.899-0.007c1.311-0.001,2.677-0.186,3.925-0.577
						c4.709-1.479,6.344-6.844,3.23-10.607c-1.884-2.278-4.559-2.434-7.287-2.432C305.138,398.67,280.754,398.662,256.371,398.661z
						 M256.567,371.034c17.067,0,34.135,0.008,51.202-0.004c8.134-0.005,16.269,0.055,24.398-0.121c3.569-0.078,5.927-2.627,6.12-6.142
						c0.194-3.539-1.507-5.907-4.928-6.761c-1.785-0.445-3.688-0.581-5.537-0.582c-47.47-0.03-94.938-0.03-142.408,0
						c-1.85,0.001-3.748,0.146-5.538,0.58c-3.234,0.784-4.916,2.991-4.957,6.361c-0.054,4.339,2.626,6.643,8.043,6.65
						C207.498,371.051,232.032,371.031,256.567,371.034z M229.473,330.134c8.919,0,17.838,0.004,26.757-0.001
						c6.922-0.004,13.846,0.065,20.766-0.067c3.588-0.069,6.183-2.651,6.662-6.159c0.423-3.097-1.716-5.766-5.242-6.928
						c-1.717-0.566-3.413-0.474-5.127-0.476c-28.088-0.016-56.176-0.012-84.265-0.009c-2.396,0-4.803-0.122-7.186,0.059
						c-4.614,0.348-6.978,2.86-6.916,7.09c0.061,4.161,2.714,6.454,7.826,6.471C198.323,330.16,213.897,330.13,229.473,330.134z"/>
					<path id="paper" fill-rule="evenodd" clip-rule="evenodd" fill="#F3ED6F" d="M273.42,192.001c60.671,0,121.343,0,182.014,0.001
						c5.195,0,5.057,0.009,5.224,5.128c1.779,54.493,0.242,109,0.866,163.498c0.046,4.015-0.924,5.269-5.037,5.091
						c-7.841-0.34-7.852-0.088-7.852-7.779c0-48.404-0.05-96.808,0.092-145.211c0.012-3.927-1.094-4.813-4.898-4.81
						c-113.343,0.103-226.685,0.103-340.027-0.001c-3.82-0.004-4.925,0.904-4.892,4.821c0.195,22.533,0.029,45.07,0.166,67.604
						c0.021,3.356-0.631,4.643-4.339,4.563c-10.129-0.217-10.133-0.032-10.133-10.295c0-22.536,0.065-45.071-0.058-67.605
						c-0.023-4.275,0.676-8.454,0.837-12.687c0.065-1.726,0.757-2.4,2.423-2.32c1.197,0.058,2.399,0.002,3.6,0.002
						C152.076,192.001,212.748,192.001,273.42,192.001z"/>
				</g>
				</svg>